HIERARCHY
ROOT Character1_Hips
{
  OFFSET -322.694 89.6114 -298.735
  CHANNELS 6 Xposition Yposition Zposition Zrotation Xrotation Yrotation
  JOINT Character1_LeftUpLeg
  {
    OFFSET 8.91 -6.27 0
    CHANNELS 3 Zrotation Xrotation Yrotation
    JOINT Character1_LeftLeg
    {
      OFFSET 0 -44.8786 0
      CHANNELS 3 Zrotation Xrotation Yrotation
      JOINT Character1_LeftFoot
      {
        OFFSET 0 -40.701 0
        CHANNELS 3 Zrotation Xrotation Yrotation
        JOINT Character1_LeftToeBase
        {
          OFFSET 0 -6.26232 12.9547
          CHANNELS 3 Zrotation Xrotation Yrotation
          End Site
          {
            OFFSET 0 0 0
          }
        }
        JOINT FootL
        {
          OFFSET 0.33955 -3.96966 6.32777
          CHANNELS 3 Zrotation Xrotation Yrotation
          End Site
          {
            OFFSET 0 0 0
          }
        }
      }
      JOINT LegLBox
      {
        OFFSET 0.33955 -20.2705 0.090831
        CHANNELS 3 Zrotation Xrotation Yrotation
        End Site
        {
          OFFSET 0 0 0
        }
      }
    }
    JOINT UpLegLBox
    {
      OFFSET -0.339774 -23.0643 0.090831
      CHANNELS 3 Zrotation Xrotation Yrotation
      End Site
      {
        OFFSET 0 0 0
      }
    }
  }
  JOINT Character1_RightUpLeg
  {
    OFFSET -8.91 -6.27 0
    CHANNELS 3 Zrotation Xrotation Yrotation
    JOINT Character1_RightLeg
    {
      OFFSET 0 -44.8786 0.000439024
      CHANNELS 3 Zrotation Xrotation Yrotation
      JOINT Character1_RightFoot
      {
        OFFSET 0 -40.701 0
        CHANNELS 3 Zrotation Xrotation Yrotation
        JOINT Character1_RightToeBase
        {
          OFFSET 0 -6.26232 12.9547
          CHANNELS 3 Zrotation Xrotation Yrotation
          End Site
          {
            OFFSET 0 0 0
          }
        }
        JOINT FootRBox
        {
          OFFSET -0.339467 -3.96966 6.32736
          CHANNELS 3 Zrotation Xrotation Yrotation
          End Site
          {
            OFFSET 0 0 0
          }
        }
      }
      JOINT LegRBox
      {
        OFFSET -0.339996 -20.2705 0.090392
        CHANNELS 3 Zrotation Xrotation Yrotation
        End Site
        {
          OFFSET 0 0 0
        }
      }
    }
    JOINT UpLegRBox
    {
      OFFSET 0.340001 -23.0643 0.090831
      CHANNELS 3 Zrotation Xrotation Yrotation
      End Site
      {
        OFFSET 0 0 0
      }
    }
  }
  JOINT Character1_Spine
  {
    OFFSET 0 7 0
    CHANNELS 3 Zrotation Xrotation Yrotation
    JOINT Character1_Spine1
    {
      OFFSET 0 12.6667 0
      CHANNELS 3 Zrotation Xrotation Yrotation
      JOINT Character1_Spine2
      {
        OFFSET 0 12.6667 0
        CHANNELS 3 Zrotation Xrotation Yrotation
        JOINT Character1_LeftShoulder
        {
          OFFSET 7 14.2552 0
          CHANNELS 3 Zrotation Xrotation Yrotation
          JOINT Character1_LeftArm
          {
            OFFSET 10.7073 0 0
            CHANNELS 3 Zrotation Xrotation Yrotation
            JOINT Character1_LeftForeArm
            {
              OFFSET 27.3055 0 0
              CHANNELS 3 Zrotation Xrotation Yrotation
              JOINT Character1_LeftHand
              {
                OFFSET 26.6971 0 0
                CHANNELS 3 Zrotation Xrotation Yrotation
                JOINT Character1_LeftHandThumb1
                {
                  OFFSET 4.34876 -0.798503 4.28243
                  CHANNELS 3 Zrotation Xrotation Yrotation
                  JOINT Character1_LeftHandThumb2
                  {
                    OFFSET 2.51259 -0.536099 0.707454
                    CHANNELS 3 Zrotation Xrotation Yrotation
                    JOINT Character1_LeftHandThumb3
                    {
                      OFFSET 2.54314 0 0
                      CHANNELS 3 Zrotation Xrotation Yrotation
                      JOINT Character1_LeftHandThumb4
                      {
                        OFFSET 2.66675 0 0
                        CHANNELS 3 Zrotation Xrotation Yrotation
                        End Site
                        {
                          OFFSET 0 0 0
                        }
                      }
                    }
                  }
                }
                JOINT Character1_LeftHandIndex1
                {
                  OFFSET 8.82198 0.199729 3.47167
                  CHANNELS 3 Zrotation Xrotation Yrotation
                  JOINT Character1_LeftHandIndex2
                  {
                    OFFSET 4.22532 0 -0.00026266
                    CHANNELS 3 Zrotation Xrotation Yrotation
                    JOINT Character1_LeftHandIndex3
                    {
                      OFFSET 2.65394 0 -0.000165164
                      CHANNELS 3 Zrotation Xrotation Yrotation
                      JOINT Character1_LeftHandIndex4
                      {
                        OFFSET 1.95822 0 -0.000122166
                        CHANNELS 3 Zrotation Xrotation Yrotation
                        End Site
                        {
                          OFFSET 0 0 0
                        }
                      }
                    }
                  }
                }
                JOINT Character1_LeftHandMiddle1
                {
                  OFFSET 8.80988 0.50089 1.30468
                  CHANNELS 3 Zrotation Xrotation Yrotation
                  JOINT Character1_LeftHandMiddle2
                  {
                    OFFSET 4.86325 0 0
                    CHANNELS 3 Zrotation Xrotation Yrotation
                    JOINT Character1_LeftHandMiddle3
                    {
                      OFFSET 2.76524 0 0
                      CHANNELS 3 Zrotation Xrotation Yrotation
                      JOINT Character1_LeftHandMiddle4
                      {
                        OFFSET 2.00563 0 0
                        CHANNELS 3 Zrotation Xrotation Yrotation
                        End Site
                        {
                          OFFSET 0 0 0
                        }
                      }
                    }
                  }
                }
                JOINT Character1_LeftHandRing1
                {
                  OFFSET 8.89376 0.37992 -0.793159
                  CHANNELS 3 Zrotation Xrotation Yrotation
                  JOINT Character1_LeftHandRing2
                  {
                    OFFSET 4.53776 0 -0.000282138
                    CHANNELS 3 Zrotation Xrotation Yrotation
                    JOINT Character1_LeftHandRing3
                    {
                      OFFSET 2.30453 0 -0.000143448
                      CHANNELS 3 Zrotation Xrotation Yrotation
                      JOINT Character1_LeftHandRing4
                      {
                        OFFSET 1.92335 0 -0.00012044
                        CHANNELS 3 Zrotation Xrotation Yrotation
                        End Site
                        {
                          OFFSET 0 0 0
                        }
                      }
                    }
                  }
                }
                JOINT Character1_LeftHandPinky1
                {
                  OFFSET 8.88227 -0.313027 -2.49036
                  CHANNELS 3 Zrotation Xrotation Yrotation
                  JOINT Character1_LeftHandPinky2
                  {
                    OFFSET 3.0441 0 0
                    CHANNELS 3 Zrotation Xrotation Yrotation
                    JOINT Character1_LeftHandPinky3
                    {
                      OFFSET 1.9745 0 0
                      CHANNELS 3 Zrotation Xrotation Yrotation
                      JOINT Character1_LeftHandPinky4
                      {
                        OFFSET 1.66661 0 0
                        CHANNELS 3 Zrotation Xrotation Yrotation
                        End Site
                        {
                          OFFSET 0 0 0
                        }
                      }
                    }
                  }
                }
              }
            }
          }
        }
        JOINT Character1_RightShoulder
        {
          OFFSET -7 14.2552 0
          CHANNELS 3 Zrotation Xrotation Yrotation
          JOINT Character1_RightArm
          {
            OFFSET -10.7073 0 0
            CHANNELS 3 Zrotation Xrotation Yrotation
            JOINT Character1_RightForeArm
            {
              OFFSET -27.3056 0 0
              CHANNELS 3 Zrotation Xrotation Yrotation
              JOINT Character1_RightHand
              {
                OFFSET -26.697 0 0
                CHANNELS 3 Zrotation Xrotation Yrotation
                JOINT Character1_RightHandThumb1
                {
                  OFFSET -4.34838 -0.798498 4.28281
                  CHANNELS 3 Zrotation Xrotation Yrotation
                  JOINT Character1_RightHandThumb2
                  {
                    OFFSET -2.51253 -0.536099 0.707677
                    CHANNELS 3 Zrotation Xrotation Yrotation
                    JOINT Character1_RightHandThumb3
                    {
                      OFFSET -2.54159 0 0.0888203
                      CHANNELS 3 Zrotation Xrotation Yrotation
                      JOINT Character1_RightHandThumb4
                      {
                        OFFSET -2.66512 0 0.0931373
                        CHANNELS 3 Zrotation Xrotation Yrotation
                        End Site
                        {
                          OFFSET 0 0 0
                        }
                      }
                    }
                  }
                }
                JOINT Character1_RightHandIndex1
                {
                  OFFSET -8.82167 0.199734 3.47244
                  CHANNELS 3 Zrotation Xrotation Yrotation
                  JOINT Character1_RightHandIndex2
                  {
                    OFFSET -4.22532 0 0.0001146
                    CHANNELS 3 Zrotation Xrotation Yrotation
                    JOINT Character1_RightHandIndex3
                    {
                      OFFSET -2.65394 0 7.1964e-005
                      CHANNELS 3 Zrotation Xrotation Yrotation
                      JOINT Character1_RightHandIndex4
                      {
                        OFFSET -1.95822 0 5.30971e-005
                        CHANNELS 3 Zrotation Xrotation Yrotation
                        End Site
                        {
                          OFFSET 0 0 0
                        }
                      }
                    }
                  }
                }
                JOINT Character1_RightHandMiddle1
                {
                  OFFSET -8.80977 0.500893 1.30546
                  CHANNELS 3 Zrotation Xrotation Yrotation
                  JOINT Character1_RightHandMiddle2
                  {
                    OFFSET -4.86325 0 0.000131883
                    CHANNELS 3 Zrotation Xrotation Yrotation
                    JOINT Character1_RightHandMiddle3
                    {
                      OFFSET -2.76524 0 7.49843e-005
                      CHANNELS 3 Zrotation Xrotation Yrotation
                      JOINT Character1_RightHandMiddle4
                      {
                        OFFSET -2.00563 0 5.4389e-005
                        CHANNELS 3 Zrotation Xrotation Yrotation
                        End Site
                        {
                          OFFSET 0 0 0
                        }
                      }
                    }
                  }
                }
                JOINT Character1_RightHandRing1
                {
                  OFFSET -8.89383 0.37992 -0.792377
                  CHANNELS 3 Zrotation Xrotation Yrotation
                  JOINT Character1_RightHandRing2
                  {
                    OFFSET -4.53776 0 0.000123053
                    CHANNELS 3 Zrotation Xrotation Yrotation
                    JOINT Character1_RightHandRing3
                    {
                      OFFSET -2.30453 0 6.24935e-005
                      CHANNELS 3 Zrotation Xrotation Yrotation
                      JOINT Character1_RightHandRing4
                      {
                        OFFSET -1.92335 0 5.21553e-005
                        CHANNELS 3 Zrotation Xrotation Yrotation
                        End Site
                        {
                          OFFSET 0 0 0
                        }
                      }
                    }
                  }
                }
                JOINT Character1_RightHandPinky1
                {
                  OFFSET -8.8825 -0.313028 -2.48957
                  CHANNELS 3 Zrotation Xrotation Yrotation
                  JOINT Character1_RightHandPinky2
                  {
                    OFFSET -3.0478 0 8.26503e-005
                    CHANNELS 3 Zrotation Xrotation Yrotation
                    JOINT Character1_RightHandPinky3
                    {
                      OFFSET -1.9769 0 5.36133e-005
                      CHANNELS 3 Zrotation Xrotation Yrotation
                      JOINT Character1_RightHandPinky4
                      {
                        OFFSET -1.66864 0 4.52451e-005
                        CHANNELS 3 Zrotation Xrotation Yrotation
                        End Site
                        {
                          OFFSET 0 0 0
                        }
                      }
                    }
                  }
                }
              }
            }
          }
        }
        JOINT Character1_Neck
        {
          OFFSET 0 12.6667 0
          CHANNELS 3 Zrotation Xrotation Yrotation
          JOINT Character1_Head
          {
            OFFSET 0 20 0
            CHANNELS 3 Zrotation Xrotation Yrotation
            End Site
            {
              OFFSET 0 0 0
            }
          }
        }
      }
    }
  }
  JOINT TorsoBox
  {
    OFFSET 0 6.37996 0.149191
    CHANNELS 3 Zrotation Xrotation Yrotation
    End Site
    {
      OFFSET 0 0 0
    }
  }
}
MOTION
Frames:	4
Frame Time:	0.00833333
-322.694 89.6114 -298.735 -17.0419 -1.64515 40.0306 18.3933 -33.4633 20.5938 179.999 63.2847 179.864 5.7665 16.4669 13.3226 -0.148736 -5.30304 -0.0141714 3.79067e-015 1.80451e-015 -0 -0 0 7.10751e-016 -1.47406e-015 1.24311e-015 8.84434e-015 16.0186 -29.8302 -1.90559 0.000950289 49.2407 -0.0246468 -2.77594 -29.095 2.33398 0.0822886 -1.15311 0.000434821 -1.12971e-021 0 0.00480039 1.89534e-015 -7.89602e-015 3.79067e-015 6.39635e-032 -1.24311e-015 2.94811e-015 7.67227 7.87071 1.13 7.41248 11.9987 1.20586 3.061 -0.358167 0.551814 -3.69711 8.29725 -6.54123 -67.0586 19.0813 1.0816 0.000327374 -0.000120755 -66.8585 16.1482 2.98791 -1.00045 -3.09563e-005 2.91282e-006 6.16702e-006 -0.000269899 -6.79157e-006 1.1955e-006 0.000294877 9.53572e-006 2.28981e-006 2.86503e-005 8.21623e-006 -7.65631e-006 -0.000310081 1.95321e-006 -2 -0.000262051 -3.34298e-006 -2.16079e-006 1.4293e-005 3.45138e-006 -5.49863e-006 1.46586e-005 4.76485e-006 1.41551e-006 -1.29561e-005 -5.48372e-006 -0.00356686 3.29426e-005 2.17436e-005 4.90853e-006 -5.4399e-006 -9.01696e-006 4.26685e-006 2.32422e-005 8.83368e-006 -2.46172e-006 -5.00407e-006 -2.59673e-006 -0.00356008 -1.1954e-005 -9.3982e-007 -3.30212e-006 1.87156e-005 3.46783e-006 -3.46798e-007 1.7161e-005 8.17875e-006 -7.23579e-006 0.000751425 -5.78082e-006 2.3401e-005 -1.56726e-005 3.28765e-006 4.84124e-006 -1.54136e-005 4.15896e-006 9.48129e-006 3.31187e-005 4.85508e-006 -9.06836e-006 9.61838 4.12045 7.25426 54.4132 2.04848 11.3502 0.000524559 1.39063e-005 103.17 -10.5508 -2.9631 -4.88723 -6.35645e-006 -5.04465e-005 -6.23634e-006 -0.000621918 3.9218e-005 -5.89848e-006 0.000209025 1.2455e-006 2.46474e-005 -2.91579e-006 -2.88917e-005 -2.04864e-005 -2.12431e-005 -2.33081e-005 -2.00006 7.90778e-005 -7.10401e-006 -7.10599e-006 2.00008e-005 1.09924e-005 5.50819e-006 -2.36185e-005 -3.34717e-005 -2.59804e-006 -1.25941e-005 -1.00207e-005 -2.00006 7.84871e-006 -3.01355e-005 -9.07109e-007 -2.85225e-007 1.3731e-005 5.74661e-006 -4.01957e-006 -3.34271e-005 -1.04659e-005 -3.49127e-006 -2.11286e-005 -2.00007 0.000104606 2.80982e-005 2.15042e-005 3.60858e-006 1.18708e-006 -3.3133e-006 -2.31247e-005 -3.011e-005 -1.14195e-005 0.00123052 -7.34759e-005 -2.00008 0.000627114 2.2746e-005 8.62951e-006 9.83929e-006 -5.71598e-006 5.03136e-006 -1.61837e-005 7.28716e-006 -1.21348e-005 -4.19681 -14.42 2.18985 -4.80986 5.63654 8.13989 -7.71506e-016 5.8521e-015 -4.1147e-015 
-319.7 89.6132 -295.847 -16.4501 -1.0315 39.1099 18.5788 -36.8993 21.0971 179.998 62.9601 179.831 5.4848 14.3939 13.4914 -0.1564 -5.57835 -0.0141779 3.79067e-015 0 1.89534e-015 3.79067e-015 -6.58002e-016 -4.73834e-016 2.94811e-015 1.24311e-015 -0 14.9028 -26.5989 -1.34839 0.000718424 48.7322 0.025975 -2.08074 -31.6644 2.85395 0.188393 -1.81372 0.00983717 -1.80753e-021 0 0.00480039 6.96532e-031 5.26402e-015 -7.58135e-015 -1.47406e-015 -4.97245e-015 -0 7.055 7.89014 1.65346 7.01031 12.1042 2.13363 2.74551 -0.435764 0.976432 -3.73443 9.01477 -5.79261 -66.8687 20.5534 3.45453 0.00032416 -0.000112939 -68.4345 15.7511 2.57092 -0.934912 -3.09563e-005 2.91282e-006 6.16702e-006 -0.000269899 -6.79157e-006 1.1955e-006 0.000294877 9.53572e-006 2.28981e-006 2.86503e-005 8.21623e-006 -7.65631e-006 -0.000310081 1.95321e-006 -2 -0.000262051 -3.34298e-006 -2.16079e-006 1.4293e-005 3.45138e-006 -5.49863e-006 1.46586e-005 4.76485e-006 1.41551e-006 -1.29561e-005 -5.48372e-006 -0.00356686 3.29426e-005 2.17436e-005 4.90853e-006 -5.4399e-006 -9.01696e-006 4.26685e-006 2.32422e-005 8.83368e-006 -2.46172e-006 -5.00407e-006 -2.59673e-006 -0.00356008 -1.1954e-005 -9.3982e-007 -3.30212e-006 1.87156e-005 3.46783e-006 -3.46798e-007 1.7161e-005 8.17875e-006 -7.23579e-006 0.000751425 -5.78082e-006 2.3401e-005 -1.56726e-005 3.28765e-006 4.84124e-006 -1.54136e-005 4.15896e-006 9.48129e-006 3.31187e-005 4.85508e-006 -9.06836e-006 8.05657 2.83222 7.90032 54.5365 1.43466 13.2389 0.000523961 1.62517e-005 105.442 -8.88684 -2.08312 -4.50154 -6.35645e-006 -5.04465e-005 -6.23634e-006 -0.000621918 3.9218e-005 -5.89848e-006 0.000209025 1.2455e-006 2.46474e-005 -2.91579e-006 -2.88917e-005 -2.04864e-005 -2.12431e-005 -2.33081e-005 -2.00006 7.90778e-005 -7.10401e-006 -7.10599e-006 2.00008e-005 1.09924e-005 5.50819e-006 -2.36185e-005 -3.34717e-005 -2.59804e-006 -1.25941e-005 -1.00207e-005 -2.00006 7.84871e-006 -3.01355e-005 -9.07109e-007 -2.85225e-007 1.3731e-005 5.74661e-006 -4.01957e-006 -3.34271e-005 -1.04659e-005 -3.49127e-006 -2.11286e-005 -2.00007 0.000104606 2.80982e-005 2.15042e-005 3.60858e-006 1.18708e-006 -3.3133e-006 -2.31247e-005 -3.011e-005 -1.14195e-005 0.00123052 -7.34759e-005 -2.00008 0.000627114 2.2746e-005 8.62951e-006 9.83929e-006 -5.71598e-006 5.03136e-006 -1.61837e-005 7.28716e-006 -1.21348e-005 -3.95186 -14.5533 1.95744 -5.04112 5.18655 7.33336 -6.42922e-016 1.21919e-015 -1.23441e-014 
-316.707 89.6341 -292.957 -15.8424 -0.438675 38.1777 18.7429 -40.3354 21.5722 179.998 62.5974 179.8 5.21139 12.2779 13.6473 -0.16411 -5.85369 -0.0141847 -3.79067e-015 1.80451e-015 -1.89534e-015 7.58135e-015 -6.58002e-016 -0 -2.94811e-015 -4.97245e-015 -2.94811e-015 13.8167 -23.0648 -0.782464 0.000406263 47.5532 0.0263336 -1.66362 -33.886 3.30239 0.303697 -2.30242 0.0203653 1.48097e-017 -2.81954e-017 0.00480039 -3.79067e-015 5.26402e-015 7.58135e-015 7.37028e-016 1.24311e-015 5.89622e-015 6.43771 7.90961 2.17689 6.60825 12.2081 3.06182 2.42991 -0.513734 1.40084 -3.79067 9.73224 -5.04178 -66.8299 21.952 5.88569 0.000321162 -0.000105038 -70.0104 15.3559 2.15353 -0.869865 -3.09563e-005 2.91282e-006 6.16702e-006 -0.000269899 -6.79157e-006 1.1955e-006 0.000294877 9.53572e-006 2.28981e-006 2.86503e-005 8.21623e-006 -7.65631e-006 -0.000310081 1.95321e-006 -2 -0.000262051 -3.34298e-006 -2.16079e-006 1.4293e-005 3.45138e-006 -5.49863e-006 1.46586e-005 4.76485e-006 1.41551e-006 -1.29561e-005 -5.48372e-006 -0.00356686 3.29426e-005 2.17436e-005 4.90853e-006 -5.4399e-006 -9.01696e-006 4.26685e-006 2.32422e-005 8.83368e-006 -2.46172e-006 -5.00407e-006 -2.59673e-006 -0.00356008 -1.1954e-005 -9.3982e-007 -3.30212e-006 1.87156e-005 3.46783e-006 -3.46798e-007 1.7161e-005 8.17875e-006 -7.23579e-006 0.000751425 -5.78082e-006 2.3401e-005 -1.56726e-005 3.28765e-006 4.84124e-006 -1.54136e-005 4.15896e-006 9.48129e-006 3.31187e-005 4.85508e-006 -9.06836e-006 6.5256 1.54763 8.54876 54.6819 0.842124 15.2422 0.00052327 1.85717e-005 107.715 -7.23119 -1.20248 -4.12496 -6.35645e-006 -5.04465e-005 -6.23634e-006 -0.000621918 3.9218e-005 -5.89848e-006 0.000209025 1.2455e-006 2.46474e-005 -2.91579e-006 -2.88917e-005 -2.04864e-005 -2.12431e-005 -2.33081e-005 -2.00006 7.90778e-005 -7.10401e-006 -7.10599e-006 2.00008e-005 1.09924e-005 5.50819e-006 -2.36185e-005 -3.34717e-005 -2.59804e-006 -1.25941e-005 -1.00207e-005 -2.00006 7.84871e-006 -3.01355e-005 -9.07109e-007 -2.85225e-007 1.3731e-005 5.74661e-006 -4.01957e-006 -3.34271e-005 -1.04659e-005 -3.49127e-006 -2.11286e-005 -2.00007 0.000104606 2.80982e-005 2.15042e-005 3.60858e-006 1.18708e-006 -3.3133e-006 -2.31247e-005 -3.011e-005 -1.14195e-005 0.00123052 -7.34759e-005 -2.00008 0.000627114 2.2746e-005 8.62951e-006 9.83929e-006 -5.71598e-006 5.03136e-006 -1.61837e-005 7.28716e-006 -1.21348e-005 -3.70751 -14.6868 1.72466 -5.27237 4.73656 6.52679 -1.70374e-015 1.40207e-015 -0 
-313.715 89.6744 -290.066 -15.2192 0.132808 37.2343 18.8799 -43.7718 22.0149 179.997 62.1984 179.77 4.94708 10.1207 13.7915 -0.171795 -6.12901 -0.0141919 -3.79067e-015 -1.80451e-015 -9.47669e-016 -3.26499e-032 -6.58002e-016 -2.84301e-015 0 0 -2.94811e-015 12.7436 -19.7081 -0.216361 0.000167306 46.5163 -0.0194935 -1.42644 -35.0248 3.70256 0.401253 -3.13493 0.0286702 2.83474e-020 -3.38345e-016 0.00480039 -1.74133e-031 2.63201e-015 3.79067e-015 -1.47406e-015 -2.48623e-015 -0 5.82041 7.92906 2.70035 6.20635 12.3105 3.99037 2.11421 -0.592082 1.825 -3.86594 10.4493 -4.28835 -66.8852 23.3711 8.34805 0.000318382 -9.70565e-005 -71.5864 14.9626 1.73577 -0.80524 -3.09563e-005 2.91282e-006 6.16702e-006 -0.000269899 -6.79157e-006 1.1955e-006 0.000294877 9.53572e-006 2.28981e-006 2.86503e-005 8.21623e-006 -7.65631e-006 -0.000310081 1.95321e-006 -2 -0.000262051 -3.34298e-006 -2.16079e-006 1.4293e-005 3.45138e-006 -5.49863e-006 1.46586e-005 4.76485e-006 1.41551e-006 -1.29561e-005 -5.48372e-006 -0.00356686 3.29426e-005 2.17436e-005 4.90853e-006 -5.4399e-006 -9.01696e-006 4.26685e-006 2.32422e-005 8.83368e-006 -2.46172e-006 -5.00407e-006 -2.59673e-006 -0.00356008 -1.1954e-005 -9.3982e-007 -3.30212e-006 1.87156e-005 3.46783e-006 -3.46798e-007 1.7161e-005 8.17875e-006 -7.23579e-006 0.000751425 -5.78082e-006 2.3401e-005 -1.56726e-005 3.28765e-006 4.84124e-006 -1.54136e-005 4.15896e-006 9.48129e-006 3.31187e-005 4.85508e-006 -9.06836e-006 5.02546 0.267258 9.20066 54.9022 0.232196 17.0185 0.000522488 2.08625e-005 109.987 -5.58338 -0.321563 -3.75723 -6.35645e-006 -5.04465e-005 -6.23634e-006 -0.000621918 3.9218e-005 -5.89848e-006 0.000209025 1.2455e-006 2.46474e-005 -2.91579e-006 -2.88917e-005 -2.04864e-005 -2.12431e-005 -2.33081e-005 -2.00006 7.90778e-005 -7.10401e-006 -7.10599e-006 2.00008e-005 1.09924e-005 5.50819e-006 -2.36185e-005 -3.34717e-005 -2.59804e-006 -1.25941e-005 -1.00207e-005 -2.00006 7.84871e-006 -3.01355e-005 -9.07109e-007 -2.85225e-007 1.3731e-005 5.74661e-006 -4.01957e-006 -3.34271e-005 -1.04659e-005 -3.49127e-006 -2.11286e-005 -2.00007 0.000104606 2.80982e-005 2.15042e-005 3.60858e-006 1.18708e-006 -3.3133e-006 -2.31247e-005 -3.011e-005 -1.14195e-005 0.00123052 -7.34759e-005 -2.00008 0.000627114 2.2746e-005 8.62951e-006 9.83929e-006 -5.71598e-006 5.03136e-006 -1.61837e-005 7.28716e-006 -1.21348e-005 -3.46377 -14.8206 1.49162 -5.50362 4.28657 5.72021 1.0126e-015 -1.15823e-015 4.1147e-015 
